<?xml version="1.0" encoding="UTF-8"?>
<svg width="188px" height="188px" viewBox="0 0 188 188" version="1.1" xmlns="http://www.w3.org/2000/svg" xmlns:xlink="http://www.w3.org/1999/xlink">
    <!-- Generator: Sketch 52.2 (67145) - http://www.bohemiancoding.com/sketch -->
    <title>access-adapt</title>
    <desc>Created with Sketch.</desc>
    <defs>
        <path d="M52.0810811,161.324324 C23.3174942,161.324324 0,138.00683 0,109.243243 C0,80.4796564 23.3174942,57.1621622 52.0810811,57.1621622 C80.8446679,57.1621622 104.162162,80.4796564 104.162162,109.243243 C104.162162,138.00683 80.8446679,161.324324 52.0810811,161.324324 Z M27.3108108,26.6756757 C19.9445264,26.6756757 13.972973,20.7041223 13.972973,13.3378378 C13.972973,5.9715534 19.9445264,0 27.3108108,0 C34.6770952,0 40.6486486,5.9715534 40.6486486,13.3378378 C40.6486486,20.7041223 34.6770952,26.6756757 27.3108108,26.6756757 Z M147.986486,104.162162 C136.410897,104.162162 127.027027,94.7782925 127.027027,83.2027027 C127.027027,71.6271129 136.410897,62.2432432 147.986486,62.2432432 C159.562076,62.2432432 168.945946,71.6271129 168.945946,83.2027027 C168.945946,94.7782925 159.562076,104.162162 147.986486,104.162162 Z" id="path-1"></path>
    </defs>
    <g id="3---Patterns" stroke="none" stroke-width="1" fill="none" fill-rule="evenodd">
        <g id="3_Patterns--Accessibility" transform="translate(-736.000000, -381.000000)">
            <g id="intro" transform="translate(238.000000, 127.000000)"></g>
            <g id="access-adapt" transform="translate(736.000000, 381.000000)">
                <g id="Icon-Background-/-Circles-/-4">
                    <g id="Color-/-Blue-/-20" transform="translate(12.702703, 15.243243)">
                        <mask id="mask-2" fill="white">
                            <use xlink:href="#path-1"></use>
                        </mask>
                        <use id="Mask" fill="#FAFBFF" fill-rule="nonzero" xlink:href="#path-1"></use>
                        <g mask="url(#mask-2)" fill="#FAFBFF" id="Rectangle-24">
                            <g transform="translate(-12.702703, -15.243243)">
                                <polygon points="0 0 188 0 188 188 0 188"></polygon>
                            </g>
                        </g>
                    </g>
                </g>
                <g id="Icon-/-Large-/-Puzzle" transform="translate(30.000000, 30.000000)">
                    <g id="Group" transform="translate(64.043416, 63.121984) rotate(-45.000000) translate(-64.043416, -63.121984) translate(22.543416, 20.121984)">
                        <path d="M15.8129149,1.18708513 L58.8129149,1.18708513 C67.6494709,1.18708513 74.8129149,8.35052913 74.8129149,17.1870851 L74.8129149,60.1870851 C74.8129149,69.0236411 67.6494709,76.1870851 58.8129149,76.1870851 L15.8129149,76.1870851 C6.97635887,76.1870851 -0.187085132,69.0236411 -0.187085132,60.1870851 L-0.187085132,17.1870851 C-0.187085132,8.35052913 6.97635887,1.18708513 15.8129149,1.18708513 Z" id="Rectangle" fill="#FFFFFF" fill-rule="nonzero"></path>
                        <path d="M3.76342539,41.8911958 L3.53167573,28.6812314 C0.365243161,28.7004347 -2.20165761,26.1885777 -2.20165761,23.0900451 C-2.20165761,19.9915125 0.366343822,17.5495468 3.53167573,17.4796555 C3.53167573,17.4796555 3.53167573,13.2718633 3.53167573,4.85627884 L16.8369062,4.85627884 C16.8236807,5.0104399 16.8169366,5.16636824 16.8169366,5.32381131 C16.8169366,8.42234393 19.4290242,10.9342009 22.6511975,10.9342009 C25.8733707,10.9342009 28.4854583,8.42234393 28.4854583,5.32381131 C28.4854583,5.16636824 28.4787142,5.0104399 28.4654887,4.85627884 L40.7983424,4.85627884" id="Combined-Shape-Copy-3" stroke="#356AE6" stroke-width="2" stroke-linejoin="round" fill-rule="nonzero" transform="translate(19.298342, 23.373737) scale(-1, 1) rotate(-90.000000) translate(-19.298342, -23.373737) "></path>
                        <path d="M61.8330817,38.2556276 L73.6976912,38.2556276 L73.6976912,59.2556276 C73.6976912,67.5398989 66.9819624,74.2556276 58.6976912,74.2556276 L37.6976912,74.2556276 L37.6976912,61.7123765 C37.7353255,61.7131362 37.7730526,61.7135178 37.8108688,61.7135178 C40.8484349,61.7135178 43.3108688,59.2510839 43.3108688,56.2135178 C43.3108688,53.1759517 40.8484349,50.7135178 37.8108688,50.7135178 C37.7730526,50.7135178 37.7353255,50.7138995 37.6976912,50.7146591 L37.6976912,38.2556276 L49.873989,38.2556276 C49.8604427,38.0910899 49.8535353,37.9246705 49.8535353,37.7566377 C49.8535353,34.4429292 52.5398268,31.7566377 55.8535353,31.7566377 C59.1672438,31.7566377 61.8535353,34.4429292 61.8535353,37.7566377 C61.8535353,37.9246705 61.846628,38.0910899 61.8330817,38.2556276 Z" id="Combined-Shape-Copy" fill="#E3EBFC" fill-rule="nonzero"></path>
                        <path d="M43.796906,74.8889487 L43.8844678,61.9658415 C43.7322831,61.9785596 43.5783539,61.9850449 43.4229293,61.9850449 C40.3641215,61.9850449 37.8844678,59.4731879 37.8844678,56.3746553 C37.8844678,53.2761226 40.3641215,50.7642656 43.4229293,50.7642656 C43.5783539,50.7642656 43.7322831,50.7707509 43.8844678,50.783469 L43.8844678,38.140889" id="Combined-Shape-Copy-2" stroke="#356AE6" stroke-width="2" stroke-linejoin="round" fill-rule="nonzero" transform="translate(40.884468, 56.514919) scale(-1, 1) translate(-40.884468, -56.514919) "></path>
                        <path d="M38.404798,31.9608117 L50.957183,31.9608117 C50.9442411,32.1256784 50.9376416,32.7924351 50.9376416,32.9608117 C50.9376416,36.2745202 53.4937164,38.9608117 56.6467945,38.9608117 C59.7998725,38.9608117 62.3559473,36.2745202 62.3559473,32.9608117 C62.3559473,32.7924351 62.3493479,32.1256784 62.3364059,31.9608117 L73.4630585,31.8916666" id="Combined-Shape-Copy-4" stroke="#356AE6" stroke-width="2" stroke-linecap="round" stroke-linejoin="round" fill-rule="nonzero" transform="translate(55.933928, 35.426239) scale(1, -1) translate(-55.933928, -35.426239) "></path>
                        <path d="M15.8129149,2.18708513 C7.52864362,2.18708513 0.812914868,8.90281388 0.812914868,17.1870851 L0.812914868,60.1870851 C0.812914868,68.4713564 7.52864362,75.1870851 15.8129149,75.1870851 L58.8129149,75.1870851 C67.0971861,75.1870851 73.8129149,68.4713564 73.8129149,60.1870851 L73.8129149,17.1870851 C73.8129149,8.90281388 67.0971861,2.18708513 58.8129149,2.18708513 L15.8129149,2.18708513 Z" id="Rectangle" stroke="#356AE6" stroke-width="2" fill-rule="nonzero"></path>
                        <path d="M69.6020157,50.2764429 L82.8900793,50.2764429 L82.8900793,71.2764429 C82.8900793,79.5607142 76.1743506,86.2764429 67.8900793,86.2764429 L46.8900793,86.2764429 L46.8900793,73.7331918 C46.9277136,73.7339515 46.9654407,73.7343331 47.0032569,73.7343331 C50.0408231,73.7343331 52.5032569,71.2718992 52.5032569,68.2343331 C52.5032569,65.196767 50.0408231,62.7343331 47.0032569,62.7343331 C46.9654407,62.7343331 46.9277136,62.7347148 46.8900793,62.7354744 L46.8900793,50.2764429 L59.9573637,50.2764429 C59.5254118,49.4911727 59.2796897,48.5890187 59.2796897,47.6294732 C59.2796897,44.5919071 61.7421236,42.1294732 64.7796897,42.1294732 C67.8172558,42.1294732 70.2796897,44.5919071 70.2796897,47.6294732 C70.2796897,48.5890187 70.0339676,49.4911727 69.6020157,50.2764429 Z" id="Combined-Shape" stroke="#F3376B" stroke-width="2" fill="#FAA5BD" fill-rule="nonzero" stroke-linecap="round" stroke-linejoin="round"></path>
                    </g>
                </g>
            </g>
        </g>
    </g>
</svg>