<?xml version="1.0" encoding="UTF-8"?>
<svg width="44px" height="44px" viewBox="0 0 44 44" version="1.1" xmlns="http://www.w3.org/2000/svg" xmlns:xlink="http://www.w3.org/1999/xlink">
    <!-- Generator: Sketch 51.2 (57519) - http://www.bohemiancoding.com/sketch -->
    <title> </title>
    <desc>Created with Sketch.</desc>
    <defs></defs>
    <g id="Templates" stroke="none" stroke-width="1" fill="none" fill-rule="evenodd">
        <g id="layout-preview" transform="translate(-24.000000, -10.000000)">
            <g id="header-bar">
                <g id="-" transform="translate(24.000000, 10.000000)">
                    <circle id="Oval" fill="#FFFFFF" cx="22" cy="22" r="22"></circle>
                    <path d="M22.4564529,23.195964 C22.1228007,23.195964 21.7908733,23.0798277 21.4432311,22.8485134 C20.5990392,22.2854633 16.2711427,19.2751193 16.2274479,19.2448396 L16.1764706,19.2095771 L16.1764706,17.7256776 C16.1764706,17.3851262 16.3242281,17.1149081 16.5812227,16.9838236 C16.8573817,16.843157 17.2019576,16.8899181 17.5026471,17.1083923 C18.15462,17.527326 24.4520419,21.8971926 24.5154761,21.941654 L24.6584425,22.0407339 L24.5135596,22.1373225 C24.5129847,22.1378974 24.0877266,22.4215306 23.6151325,22.7521165 C23.211147,23.0482065 22.8328417,23.195964 22.4564529,23.195964 Z M30.9000193,20.5811732 C31.4337479,20.954879 31.7058824,21.4180826 31.7058824,21.9558356 L31.7054991,22.2226041 C31.6989832,22.6373217 31.5504591,23.2214526 30.9000193,23.7099532 L30.8977196,23.7112947 C30.5843817,23.9351349 16.3009625,34.1564677 16.3009625,34.1564677 L16.3009625,31.6727615 C16.3009625,31.0098649 16.3741705,30.6909693 17.1121916,30.1994024 C17.7277521,29.8040408 27.4791739,23.0422655 28.7725793,22.1457548 C27.4879895,21.2542269 17.8628611,14.5723672 17.2026476,14.0884661 L17.125415,14.032506 C16.6380643,13.6796894 16.2534348,13.4012307 16.2534348,12.6655093 L16.2534348,10.3529412 L16.4395211,10.4828758 C17.0144532,10.8834118 30.5232472,20.2990732 30.9000193,20.5811732 Z" id="Fill-4" fill="#356AE6"></path>
                </g>
            </g>
        </g>
    </g>
</svg>